<svg height="250" viewBox="0 0 60 60" width="250" xmlns="http://www.w3.org/2000/svg"><g id="Page-1" fill="none" fill-rule="evenodd"><g id="055---Date-Photography" fill="rgb(0,0,0)" fill-rule="nonzero"><path id="Shape" d="m17 32h26c1.1045695 0 2-.8954305 2-2v-24c0-1.1045695-.8954305-2-2-2h-26c-1.1045695 0-2 .8954305-2 2v24c0 1.1045695.8954305 2 2 2zm0-26h26v24h-26z"/><path id="Shape" d="m57.765 13.576-8.765-2.408v-8.168c0-1.65685425-1.3431458-3-3-3h-32c-1.6568542 0-3 1.34314575-3 3v3.159l-8.581 1.7c-.7820859.15210256-1.47112139.61005487-1.91419868 1.27223011-.44307729.66217525-.60354805 1.47380289-.44580132 2.25476989l8.149 41.2c.27682947 1.3999487 1.50294854 2.4101369 2.93 2.414.2014778-.0003912.4024344-.0204868.6-.06l8.959-1.772 24.375 6.7c.7674066.210541 1.5870221.1075615 2.2784921-.2862782s1.1981361-1.0462687 1.4085079-1.8137218l11.108-40.5c.2157515-.768452.1151945-1.5912752-.2792678-2.2851531-.3944623-.693878-1.0500598-1.2011665-1.8207322-1.4088469zm-8.765 3.815 4.285 1.174-4.285 15.626zm-36-14.391c0-.55228475.4477153-1 1-1h32c.5522847 0 1 .44771525 1 1v42c0 .5522847-.4477153 1-1 1h-32c-.5522847 0-1-.4477153-1-1zm-2 32.79-4.476-22.629 4.476-.884zm.342 17.189c-.2594303.0531247-.5293301.0000989-.749379-.1472267-.2200488-.1473256-.3719018-.3766689-.421621-.6367733l-8.151-41.203c-.05351141-.259001-.00116753-.5286454.1453612-.7488142s.37505915-.37255602.6346388-.4231858l8.2-1.62v2.04l-4.853.96c-.52251361.0997119-.98377826.403471-1.28178524.844101-.29800698.4406299-.40820176.9818247-.30621476 1.503899l4.661 23.552c.17935228.8627836.9022745 1.5065093 1.78 1.585v6.315c0 1.6568542 1.3431458 3 3 3h22.512zm46.594-36.244-11.111 40.5c-.0686489.2543682-.2365359.4705316-.466.6-.2318664.1317339-.5060401.1676205-.764.1l-20.514-5.635 18.026-3.567c.5488822-.0977021 1.0577168-.352293 1.465-.733h1.428c1.6568542 0 3-1.3431458 3-3v-3.243l6.212-22.657c.1465813-.5140179.0780028-1.0655338-.19-1.528-.2629168-.4608143-.6975981-.7987799-1.209-.94l-4.813-1.315v-2.076l8.238 2.264c.258006.0682705.4775695.2377201.609.47.1313186.2308421.1634314.5050635.089.76z"/><path id="Shape" d="m17 37h16c.5522847 0 1-.4477153 1-1s-.4477153-1-1-1h-16c-.5522847 0-1 .4477153-1 1s.4477153 1 1 1z"/><path id="Shape" d="m42 39h-25c-.5522847 0-1 .4477153-1 1s.4477153 1 1 1h25c.5522847 0 1-.4477153 1-1s-.4477153-1-1-1z"/><path id="Shape" d="m35 9c-1.8684853-.00074492-3.6630914.72965974-5 2.035-1.3369086-1.30534026-3.1315147-2.03574492-5-2.035-3.364 0-6 2.872-6 6.538 0 4.007 3.228 7.891 10.159 12.223.515685.3188838 1.167315.3188838 1.683 0 6.93-4.332 10.158-8.216 10.158-12.223 0-3.666-2.636-6.538-6-6.538zm-5 16.928c-6.139-3.872-9-7.177-9-10.39 0-2.587 1.72-4.538 4-4.538 1.6422541.0056607 3.1861737.7835473 4.168 2.1.1851926.2761329.495517.4421639.828.443h.004c.3335458.0001626.645215-.165986.831-.443.9820373-1.3167335 2.5263936-2.0946534 4.169-2.1 2.28 0 4 1.951 4 4.538 0 3.214-2.861 6.519-9 10.39z"/><path id="Shape" d="m25.991 13c-.8015004-.0224199-1.576758.2867494-2.1428736.8545685-.5661157.5678191-.8729543 1.3440021-.8481264 2.1454315 0 .5522847.4477153 1 1 1s1-.4477153 1-1c-.0271252-.2726324.0694818-.5430541.2632139-.7367861.193732-.1937321.4641537-.2903391.7367861-.2632139.5522847-.0027614.9977614-.4527153.995-1.005s-.4527153-.9977614-1.005-.995z"/></g></g></svg>